<?xml version="1.0" encoding="utf-8"?>
<!-- Generator: Adobe Illustrator 16.0.0, SVG Export Plug-In . SVG Version: 6.00 Build 0)  -->
<!DOCTYPE svg PUBLIC "-//W3C//DTD SVG 1.1//EN" "http://www.w3.org/Graphics/SVG/1.1/DTD/svg11.dtd">
<svg version="1.1" id="Layer_1" xmlns="http://www.w3.org/2000/svg" xmlns:xlink="http://www.w3.org/1999/xlink" x="0px" y="0px"
	 width="429.787px" height="54.255px" viewBox="0 0 429.787 54.255" enable-background="new 0 0 429.787 54.255"
	 xml:space="preserve">
<g>
	<g>
		<path fill="#595959" d="M22.547,30.134c0,3.047-0.675,5.465-2.023,7.254c-1.349,1.788-3.156,2.683-5.42,2.683
			c-2.674,0-4.722-0.939-6.143-2.818v9.973h-2.15V20.162h2.005l0.108,2.764c1.409-2.083,3.451-3.125,6.125-3.125
			c2.336,0,4.17,0.885,5.501,2.656c1.331,1.771,1.996,4.228,1.996,7.372V30.134z M20.379,29.755c0-2.494-0.512-4.463-1.536-5.908
			c-1.024-1.445-2.451-2.168-4.282-2.168c-1.325,0-2.463,0.319-3.415,0.958c-0.952,0.639-1.68,1.566-2.186,2.782v9.376
			c0.518,1.12,1.258,1.976,2.222,2.565c0.963,0.59,2.102,0.885,3.415,0.885c1.818,0,3.237-0.725,4.255-2.177
			C19.871,34.618,20.379,32.513,20.379,29.755z"/>
		<path fill="#595959" d="M26.143,29.646c0-1.879,0.364-3.57,1.093-5.076c0.729-1.505,1.759-2.677,3.09-3.514
			c1.331-0.837,2.839-1.256,4.525-1.256c2.602,0,4.709,0.912,6.323,2.737c1.614,1.824,2.421,4.243,2.421,7.253v0.452
			c0,1.892-0.364,3.593-1.093,5.104c-0.729,1.512-1.756,2.677-3.081,3.496c-1.325,0.819-2.836,1.229-4.535,1.229
			c-2.59,0-4.694-0.912-6.314-2.737c-1.62-1.824-2.43-4.242-2.43-7.254V29.646z M28.311,30.243c0,2.337,0.605,4.255,1.815,5.754
			c1.211,1.5,2.797,2.249,4.761,2.249c1.951,0,3.532-0.749,4.742-2.249c1.211-1.499,1.816-3.478,1.816-5.935v-0.416
			c0-1.492-0.277-2.86-0.831-4.101c-0.554-1.24-1.331-2.201-2.331-2.882c-1-0.68-2.144-1.021-3.433-1.021
			c-1.927,0-3.499,0.756-4.715,2.268c-1.217,1.511-1.825,3.49-1.825,5.935V30.243z"/>
		<path fill="#595959" d="M52.736,35.21l0.325,1.681l0.434-1.771l4.697-14.959h1.843l4.643,14.832l0.506,2.061l0.416-1.897
			l4.011-14.995h2.24L66.16,39.709h-1.843l-5.022-15.501l-0.235-1.066l-0.235,1.084l-4.932,15.483H52.05l-5.673-19.548h2.222
			L52.736,35.21z"/>
		<path fill="#595959" d="M83.521,40.071c-1.662,0-3.165-0.409-4.507-1.229c-1.343-0.819-2.388-1.96-3.135-3.424
			c-0.747-1.463-1.12-3.104-1.12-4.923v-0.777c0-1.879,0.364-3.57,1.093-5.076c0.729-1.505,1.744-2.689,3.044-3.55
			c1.301-0.861,2.71-1.292,4.228-1.292c2.373,0,4.254,0.81,5.646,2.43c1.391,1.62,2.086,3.833,2.086,6.64v1.21H76.909v0.416
			c0,2.217,0.635,4.063,1.906,5.537c1.271,1.476,2.87,2.213,4.797,2.213c1.156,0,2.177-0.21,3.063-0.632
			c0.885-0.421,1.689-1.096,2.412-2.023l1.355,1.03C88.851,38.921,86.544,40.071,83.521,40.071z M83.124,21.643
			c-1.626,0-2.996,0.596-4.11,1.789c-1.114,1.192-1.792,2.794-2.033,4.806h11.725v-0.235c-0.061-1.879-0.596-3.408-1.608-4.589
			C86.087,22.233,84.762,21.643,83.124,21.643z"/>
		<path fill="#595959" d="M104.099,22.004c-0.458-0.084-0.946-0.126-1.463-0.126c-1.349,0-2.49,0.376-3.423,1.129
			c-0.934,0.752-1.599,1.846-1.997,3.279v13.423h-2.15V20.162h2.114l0.036,3.107c1.144-2.313,2.981-3.469,5.51-3.469
			c0.602,0,1.078,0.079,1.427,0.235L104.099,22.004z"/>
		<path fill="#595959" d="M114.74,40.071c-1.662,0-3.165-0.409-4.507-1.229c-1.343-0.819-2.388-1.96-3.135-3.424
			c-0.747-1.463-1.12-3.104-1.12-4.923v-0.777c0-1.879,0.364-3.57,1.093-5.076c0.729-1.505,1.744-2.689,3.044-3.55
			c1.301-0.861,2.71-1.292,4.228-1.292c2.373,0,4.254,0.81,5.646,2.43c1.391,1.62,2.086,3.833,2.086,6.64v1.21h-13.947v0.416
			c0,2.217,0.635,4.063,1.906,5.537c1.271,1.476,2.87,2.213,4.797,2.213c1.156,0,2.177-0.21,3.063-0.632
			c0.885-0.421,1.689-1.096,2.412-2.023l1.355,1.03C120.07,38.921,117.763,40.071,114.74,40.071z M114.343,21.643
			c-1.626,0-2.996,0.596-4.11,1.789c-1.114,1.192-1.792,2.794-2.033,4.806h11.725v-0.235c-0.061-1.879-0.596-3.408-1.608-4.589
			C117.306,22.233,115.98,21.643,114.343,21.643z"/>
		<path fill="#595959" d="M125.417,29.755c0-3.036,0.678-5.454,2.032-7.254c1.355-1.801,3.195-2.701,5.52-2.701
			c2.638,0,4.649,1.042,6.034,3.125V11.959h2.15v27.75h-2.023l-0.09-2.602c-1.385,1.976-3.421,2.963-6.106,2.963
			c-2.252,0-4.068-0.906-5.447-2.719c-1.379-1.813-2.068-4.261-2.068-7.345V29.755z M127.604,30.134c0,2.493,0.5,4.459,1.5,5.898
			c1,1.439,2.409,2.159,4.228,2.159c2.662,0,4.553-1.175,5.673-3.522v-9.178c-1.12-2.541-2.999-3.812-5.637-3.812
			c-1.819,0-3.234,0.714-4.246,2.141C128.109,25.248,127.604,27.352,127.604,30.134z"/>
		<path fill="#595959" d="M171.577,30.134c0,3.047-0.675,5.465-2.023,7.254c-1.349,1.788-3.162,2.683-5.438,2.683
			c-2.722,0-4.782-1.012-6.179-3.035l-0.09,2.674h-2.023v-27.75h2.15v11.039c1.373-2.132,3.408-3.198,6.106-3.198
			c2.313,0,4.14,0.882,5.483,2.646c1.343,1.765,2.014,4.219,2.014,7.362V30.134z M169.409,29.755c0-2.578-0.5-4.568-1.5-5.972
			c-1-1.403-2.409-2.104-4.228-2.104c-1.385,0-2.56,0.34-3.523,1.021c-0.964,0.681-1.692,1.678-2.186,2.99v8.816
			c1.084,2.457,2.999,3.686,5.745,3.686c1.782,0,3.177-0.704,4.183-2.114C168.906,34.669,169.409,32.562,169.409,29.755z"/>
		<path fill="#595959" d="M182.345,36.602l5.709-16.44h2.33l-8.346,22.872l-0.434,1.012c-1.072,2.372-2.729,3.56-4.969,3.56
			c-0.518,0-1.072-0.085-1.662-0.254l-0.018-1.788l1.119,0.108c1.061,0,1.918-0.262,2.574-0.786c0.657-0.523,1.214-1.425,1.672-2.7
			l0.957-2.639l-7.371-19.385h2.367L182.345,36.602z"/>
	</g>
</g>
<path fill="#595959" d="M309.479,6.199c-0.627,0.625-0.959,1.426-0.959,2.32v14.645h-23.387V8.652c0-0.892-0.324-1.695-0.949-2.322
	c-1.25-1.256-3.382-1.258-4.633-0.003c-0.629,0.625-0.962,1.429-0.962,2.324v35.703c0,0.91,0.328,1.691,0.962,2.32
	c0.624,0.629,1.424,0.961,2.309,0.961c0.896,0,1.696-0.328,2.324-0.953c0.625-0.625,0.949-1.426,0.949-2.316V29.773h23.387v14.404
	c0,0.895,0.332,1.695,0.957,2.316c1.252,1.25,3.391,1.25,4.631-0.004c0.631-0.625,0.962-1.426,0.962-2.316V8.52
	c0-0.89-0.331-1.689-0.962-2.317C312.857,4.949,310.721,4.951,309.479,6.199"/>
<path fill="#595959" d="M348.926,28.972c0.622-0.629,0.954-1.438,0.954-2.338c0-0.903-0.332-1.711-0.952-2.337
	c-0.627-0.637-1.43-0.972-2.322-0.972h-19.959c0.715-2.972,2.35-5.57,4.861-7.737c2.838-2.449,6.055-3.694,9.561-3.694h4.791
	c0.891,0,1.695-0.334,2.323-0.967c0.622-0.634,0.949-1.44,0.949-2.336c0-0.909-0.319-1.693-0.949-2.337
	c-0.628-0.636-1.433-0.973-2.323-0.973h-5.827v0.025c-5.271,0.248-9.958,2.391-13.946,6.379c-4.247,4.248-6.4,9.289-6.4,14.981
	c0,5.693,2.153,10.73,6.4,14.979c4.242,4.244,9.283,6.398,14.982,6.398h2.446h0.019c1.02-0.037,1.816-0.063,2.389-0.063
	c0.857,0,1.633-0.334,2.242-0.971c0.592-0.621,0.906-1.418,0.906-2.301c0-0.895-0.33-1.699-0.955-2.316
	c-0.629-0.629-1.43-0.959-2.32-0.959h-4.727c-3.506,0-6.709-1.242-9.525-3.693c-2.498-2.174-4.141-4.789-4.888-7.799h19.95
	C347.5,29.941,348.303,29.602,348.926,28.972"/>
<path fill="#595959" d="M234.365,28.972c0.624-0.629,0.956-1.438,0.956-2.338c0-0.903-0.332-1.711-0.952-2.337
	c-0.628-0.637-1.431-0.972-2.323-0.972h-19.959c0.717-2.972,2.351-5.57,4.861-7.737c2.838-2.449,6.056-3.694,9.56-3.694h4.792
	c0.892,0,1.694-0.334,2.322-0.967c0.624-0.634,0.952-1.44,0.952-2.336c0-0.909-0.32-1.693-0.952-2.337
	c-0.628-0.636-1.431-0.973-2.322-0.973h-5.826v0.025c-5.272,0.248-9.958,2.391-13.947,6.379c-4.247,4.248-6.4,9.289-6.4,14.981
	c0,5.693,2.152,10.73,6.4,14.979c4.245,4.244,9.285,6.398,14.981,6.398h2.446h0.019c1.02-0.037,1.818-0.063,2.389-0.063
	c0.859,0,1.636-0.334,2.242-0.971c0.593-0.621,0.908-1.418,0.908-2.301c0-0.895-0.332-1.699-0.957-2.316
	c-0.628-0.629-1.428-0.959-2.317-0.959h-4.729c-3.504,0-6.708-1.242-9.524-3.693c-2.499-2.174-4.14-4.789-4.888-7.799h19.949
	C232.941,29.941,233.744,29.602,234.365,28.972"/>
<path fill="#595959" d="M384.351,42.062c-0.634-0.68-1.442-1.042-2.35-1.042h-21.104V8.084c0-0.89-0.326-1.693-0.955-2.318
	c-1.25-1.251-3.39-1.251-4.637,0c-0.625,0.625-0.956,1.429-0.956,2.318v36.273c0,0.895,0.331,1.699,0.956,2.32
	c0.236,0.236,0.504,0.426,0.786,0.576c0.535,0.258,1.265,0.363,2.625,0.363v0.018h23.285c0.907,0,1.688-0.318,2.313-0.943
	c0.63-0.617,0.964-1.414,0.964-2.301C385.277,43.507,384.963,42.722,384.351,42.062"/>
<path fill="#595959" d="M274.333,6.194c-0.634-0.625-1.406-0.943-2.317-0.943h-13.977c-1.24,0.008-1.951,0.108-2.464,0.342
	l0.007,0.009c-0.303,0.153-0.577,0.356-0.825,0.604c-0.63,0.625-0.96,1.428-0.96,2.32v36.277c0,0.891,0.33,1.695,0.96,2.316
	c0.628,0.625,1.426,0.961,2.315,0.961c0.899,0,1.697-0.336,2.314-0.957c0.627-0.625,0.956-1.426,0.956-2.32V11.864h11.673
	c0.911,0,1.719-0.358,2.35-1.037c0.622-0.663,0.927-1.447,0.927-2.332C275.291,7.608,274.961,6.814,274.333,6.194"/>
<path fill="#595959" d="M251.423,8.354c0,1.639-1.329,2.968-2.968,2.968s-2.973-1.329-2.973-2.968c0-1.64,1.334-2.97,2.973-2.97
	S251.423,6.715,251.423,8.354"/>
<path fill="#595959" d="M243.508,8.318c0,1.64-1.331,2.969-2.967,2.969c-1.642,0-2.973-1.329-2.973-2.969
	c0-1.639,1.331-2.969,2.973-2.969C242.177,5.35,243.508,6.679,243.508,8.318"/>
<path fill="#595959" d="M402.51,5c-10.92,0-19.777,9.645-19.777,21.538c0,11.896,8.857,21.537,19.777,21.537
	c10.923,0,19.776-9.641,19.776-21.537C422.285,14.646,413.433,5,402.51,5 M402.51,41.527c-7.599,0-13.76-6.713-13.76-14.989
	c0-8.276,6.161-14.986,13.76-14.986c7.602,0,13.763,6.71,13.763,14.986C416.272,34.814,410.111,41.527,402.51,41.527"/>
</svg>
