<?xml version="1.0" encoding="utf-8"?>
<!-- Generator: Adobe Illustrator 16.0.0, SVG Export Plug-In . SVG Version: 6.00 Build 0)  -->
<!DOCTYPE svg PUBLIC "-//W3C//DTD SVG 1.1//EN" "http://www.w3.org/Graphics/SVG/1.1/DTD/svg11.dtd">
<svg version="1.1" xmlns="http://www.w3.org/2000/svg" xmlns:xlink="http://www.w3.org/1999/xlink" x="0px" y="0px"
	 width="329.787px" height="327.66px" viewBox="0 0 329.787 327.66" enable-background="new 0 0 329.787 327.66"
	 xml:space="preserve">
<g id="Layer_1" display="none">
	<g display="inline">
		<path d="M307.295,128.288 M164.186,50.334c17.625,0,34.625,3.938,50.047,11.406l22.469-25.25
			c-21.422-12.094-46.172-18.984-72.516-18.984l0,0c-81.594,0-147.75,66.141-147.75,147.75s66.156,147.766,147.75,147.766
			c81.609,0,147.766-66.156,147.766-147.766c0-12.766-1.625-25.141-4.656-36.969l-28.781,25.047
			c0.406,3.938,0.609,7.906,0.609,11.922c0,30.703-11.953,59.563-33.672,81.266c-21.703,21.719-50.563,33.656-81.266,33.656
			c-30.688,0-59.563-11.938-81.266-33.656c-21.719-21.703-33.656-50.563-33.656-81.266s11.938-59.563,33.656-81.266
			C104.623,62.272,133.498,50.334,164.186,50.334 M244.311,41.084 M304.686,119.366"/>
		<g>
			<g>
				<path d="M298.467,36.163c-2.5-2.531-5.516-3.797-8.953-3.797c-3.469,0-6.469,1.281-8.984,3.797L151.42,165.256l-29.328-29.313
					c-2.516-2.531-5.516-3.797-8.969-3.797s-6.438,1.266-8.969,3.797l-20.359,20.344c-2.516,2.516-3.781,5.516-3.781,8.969
					s1.266,6.453,3.781,8.969l58.672,58.641c2.5,2.547,5.516,3.797,8.953,3.797c3.453,0,6.453-1.25,8.969-3.797L318.826,74.459
					c2.531-2.531,3.781-5.516,3.781-8.969c0-3.469-1.25-6.453-3.781-8.969L298.467,36.163z"/>
			</g>
		</g>
	</g>
</g>
<g id="Layer_2">
	<g>
		<g>
			<path d="M218.842,97.694l-67.5,67.5l-29.469-29.469c-2.547-2.547-5.547-3.813-9.031-3.813c-3.469,0-6.469,1.266-9.031,3.813
				l-20.438,20.453c-2.531,2.531-3.813,5.531-3.813,9.016s1.281,6.484,3.813,9.016l58.953,58.938
				c2.531,2.547,5.516,3.813,9.016,3.813c3.469,0,6.484-1.266,9.016-3.813l88.891-88.891c0,0,0.922-8.219-11-26.453
				C226.311,99.553,218.842,97.694,218.842,97.694z"/>
		</g>
		<path d="M164.17,49.678c30.859,0,59.844,12.031,81.656,33.859c21.828,21.797,33.859,50.797,33.859,81.656
			s-12.031,59.859-33.859,81.656c-21.813,21.813-50.797,33.844-81.656,33.844s-59.875-12.031-81.672-33.844
			c-21.813-21.797-33.844-50.797-33.844-81.656s12.031-59.859,33.844-81.656C104.295,61.709,133.311,49.678,164.17,49.678
			 M164.17,16.694c-82.016,0-148.5,66.484-148.5,148.5s66.484,148.484,148.5,148.484c82.031,0,148.484-66.469,148.484-148.484
			S246.201,16.694,164.17,16.694L164.17,16.694z"/>
	</g>
</g>
<g id="Layer_3" display="none">
	<path display="inline" d="M164.389,50.303c30.578,0,59.313,11.891,80.922,33.5c21.594,21.609,33.516,50.344,33.516,80.906
		s-11.922,59.297-33.516,80.906c-21.609,21.594-50.344,33.516-80.922,33.516c-30.547,0-59.281-11.922-80.891-33.516
		c-21.625-21.609-33.516-50.344-33.516-80.906s11.891-59.297,33.516-80.906C105.107,62.194,133.842,50.303,164.389,50.303
		 M164.389,17.6c-81.234,0-147.094,65.875-147.094,147.109s65.859,147.109,147.094,147.109c81.266,0,147.125-65.875,147.125-147.109
		S245.654,17.6,164.389,17.6L164.389,17.6z"/>
</g>
</svg>
