<svg xmlns="http://www.w3.org/2000/svg" viewBox="0 0 4.29 6.07"><defs><style>.cls-1{fill:#4d6584;}</style></defs><title>Asset 11</title><g id="Layer_2" data-name="Layer 2"><g id="Layer_3" data-name="Layer 3"><path class="cls-1" d="M4.15,3.36a.47.47,0,0,0-.33-.8H1a2.07,2.07,0,0,1,.69-1.1A2.06,2.06,0,0,1,3,.94h.68A.44.44,0,0,0,4,.8.46.46,0,0,0,4,.14.44.44,0,0,0,3.71,0H2.89a2.93,2.93,0,0,0-2,.91A2.9,2.9,0,0,0,0,3,2.89,2.89,0,0,0,.91,5.16,2.93,2.93,0,0,0,3,6.07h.69A.42.42,0,0,0,4,5.92a.42.42,0,0,0,.13-.32A.45.45,0,0,0,4,5.27a.43.43,0,0,0-.32-.14H3a2,2,0,0,1-1.35-.52A2.12,2.12,0,0,1,1,3.5H3.82a.45.45,0,0,0,.33-.14"/></g></g></svg>