<svg xmlns="http://www.w3.org/2000/svg" viewBox="0 0 7.99 7.59"><defs><style>.cls-1{fill:#4d6584;}</style></defs><title>Asset 7</title><g id="Layer_2" data-name="Layer 2"><g id="Layer_3" data-name="Layer 3"><path class="cls-1" d="M7.64,2.59l-2.2-.21a.36.36,0,0,1-.31-.23L4.34.24a.38.38,0,0,0-.7,0L2.86,2.15a.37.37,0,0,1-.32.23l-2.2.21a.38.38,0,0,0-.21.66L1.79,4.71a.39.39,0,0,1,.12.37l-.5,2A.38.38,0,0,0,2,7.54L3.8,6.46a.39.39,0,0,1,.39,0L6,7.54a.38.38,0,0,0,.56-.42l-.49-2a.37.37,0,0,1,.12-.37L7.87,3.25A.38.38,0,0,0,7.64,2.59Z"/></g></g></svg>